<svg width="47" height="40" viewBox="0 0 47 40" fill="none" xmlns="http://www.w3.org/2000/svg">
<path d="M37.0379 18.1643H9.77677C7.62593 18.1643 5.88232 19.6296 5.88232 21.437V32.8916C5.88232 34.6991 7.62593 36.1643 9.77677 36.1643H37.0379C39.1887 36.1643 40.9323 34.6991 40.9323 32.8916V21.437C40.9323 19.6296 39.1887 18.1643 37.0379 18.1643Z" stroke="black" stroke-linecap="round" stroke-linejoin="round"/>
<path d="M13.6709 18.1643V11.6188C13.6709 9.44889 14.6967 7.36781 16.5225 5.83342C18.3484 4.29902 20.8248 3.43701 23.407 3.43701C25.9892 3.43701 28.4656 4.29902 30.2915 5.83342C32.1174 7.36781 33.1431 9.44889 33.1431 11.6188V18.1643" stroke="black" stroke-linecap="round" stroke-linejoin="round"/>
</svg>
